<svg width="770" height="168" viewBox="0 0 770 168" fill="none" xmlns="http://www.w3.org/2000/svg">
<path d="M749.775 164.452C746.132 164.452 743.47 163.612 741.788 161.93C740.107 160.109 739.266 157.797 739.266 154.994C739.266 153.453 739.476 151.701 739.897 149.74L741.578 140.912H740.947C736.464 149.6 731.419 156.115 725.814 160.459C720.209 164.803 713.203 166.975 704.796 166.975C699.612 166.975 694.918 165.994 690.714 164.032C686.65 162.07 683.147 159.338 680.205 155.835C677.402 152.332 675.231 148.128 673.689 143.224C672.148 138.18 671.377 132.575 671.377 126.41C671.377 117.722 672.428 109.105 674.53 100.557C676.772 91.8696 680.065 84.1629 684.408 77.4371C688.892 70.5711 694.427 65.0363 701.013 60.8327C707.599 56.4889 715.235 54.3171 723.923 54.3171C731.489 54.3171 737.935 56.1386 743.259 59.7818C748.724 63.2848 752.367 68.3993 754.189 75.1251H754.819L758.393 56.8392H769.953L750.616 154.154H767.01L764.908 164.452H749.775ZM707.529 156.466C712.012 156.466 716.076 155.625 719.719 153.943C723.362 152.262 726.865 149.81 730.228 146.587C734.011 143.224 737.304 139.161 740.107 134.396C743.049 129.632 745.081 124.098 746.202 117.792L751.246 92.7804C751.947 89.4175 751.947 86.0546 751.246 82.6916C750.686 79.3287 749.355 76.3161 747.253 73.6538C745.151 70.9915 742.209 68.8897 738.425 67.3484C734.782 65.6669 730.298 64.8262 724.974 64.8262C714.885 64.8262 706.548 68.1891 699.962 74.9149C693.516 81.5006 689.103 90.7486 686.72 102.659L684.198 115.27C683.918 117.232 683.638 119.193 683.358 121.155C683.217 123.117 683.147 125.289 683.147 127.671C683.147 131.734 683.568 135.517 684.408 139.02C685.389 142.523 686.861 145.606 688.822 148.268C690.924 150.791 693.516 152.822 696.599 154.364C699.682 155.765 703.325 156.466 707.529 156.466Z" fill="#E8FD94"/>
<path d="M593.97 56.3288H637.898C645.885 56.3288 652.121 58.2905 656.604 62.2139C661.088 66.1373 663.33 71.602 663.33 78.6081C663.33 86.4549 661.158 92.8304 656.815 97.7347C652.611 102.499 646.936 105.722 639.79 107.403L639.58 107.823C645.185 108.944 649.528 111.256 652.611 114.759C655.834 118.122 657.445 122.466 657.445 127.791C657.445 132.695 656.604 137.389 654.923 141.873C653.382 146.217 651.07 150.07 647.987 153.433C645.044 156.656 641.401 159.248 637.058 161.21C632.854 163.031 628.02 163.942 622.555 163.942H572.321L593.97 56.3288ZM621.294 153.853C628.02 153.853 633.274 152.242 637.058 149.019C640.981 145.656 643.503 141.312 644.624 135.988C645.465 132.064 645.885 129.332 645.885 127.791C645.885 123.307 644.484 119.804 641.682 117.282C639.019 114.619 634.816 113.288 629.071 113.288H593.97L585.773 153.853H621.294ZM628.86 103.41C634.185 103.41 638.879 101.938 642.943 98.9958C647.146 95.9131 649.809 91.7094 650.93 86.3848C651.49 83.162 651.77 80.5698 651.77 78.6081C651.77 74.9649 650.369 72.0224 647.567 69.7804C644.904 67.5385 641.051 66.4175 636.007 66.4175H603.428L596.072 103.41H628.86Z" fill="#E8FD94"/>
<path d="M425.763 165.093L461.689 36.7565C463.212 31.4957 463.696 27.4808 463.142 24.712C462.727 21.8047 460.858 19.7973 457.535 18.6897C454.213 17.4438 448.952 16.7515 441.753 16.6131L444.245 8.51421C457.812 8.37576 469.995 7.61433 480.794 6.22991C491.592 4.84548 501.56 2.76885 510.697 0L464.596 165.093H425.763ZM523.572 168C513.605 168 505.99 165.785 500.729 161.355C495.607 156.786 492.492 149.933 491.385 140.796L488.685 114.838C488.131 111.515 487.301 109.3 486.193 108.193C485.224 106.947 483.77 106.324 481.832 106.324H474.979L476.64 99.6786H483.493C489.308 99.6786 494.084 98.5711 497.822 96.356C501.699 94.1409 504.883 91.3721 507.375 88.0495C510.005 84.5884 512.359 80.9196 514.435 77.0433C516.65 73.1669 519.004 69.5674 521.496 66.2448C523.988 62.7837 526.964 59.9456 530.425 57.7305C533.886 55.5155 538.317 54.4079 543.716 54.4079C549.807 54.4079 554.584 55.7923 558.045 58.5612C561.644 61.33 563.444 65.1372 563.444 69.9827C563.444 74.136 562.129 77.6663 559.498 80.5736C556.868 83.4808 553.614 84.9345 549.738 84.9345C546.969 84.9345 544.685 84.3115 542.885 83.0655C541.085 81.8195 539.493 80.4351 538.109 78.9122C536.725 77.2509 535.34 75.8665 533.956 74.759C532.571 73.513 531.048 72.89 529.387 72.89C527.449 72.89 525.857 73.6514 524.611 75.1743C523.365 76.6972 522.05 78.7046 520.665 81.1965C519.281 83.6885 517.481 86.3189 515.266 89.0878C513.051 91.8566 510.144 94.487 506.544 96.979L506.752 95.3177C513.258 96.4252 517.966 98.848 520.873 102.586C523.919 106.324 525.926 112.277 526.895 120.445L529.179 141.211C529.733 145.918 530.702 149.31 532.087 151.387C533.471 153.325 535.479 154.294 538.109 154.294C540.739 154.294 543.162 153.256 545.377 151.179C547.592 149.103 549.946 145.78 552.438 141.211L556.176 134.358H564.275L558.46 145.572C555.691 150.833 552.576 155.125 549.115 158.447C545.793 161.632 542.055 163.985 537.901 165.508C533.748 167.169 528.972 168 523.572 168Z" fill="#E8FD94"/>
<path d="M345.864 167.909C331.328 167.909 320.045 164.102 312.015 156.488C303.985 148.735 299.97 137.867 299.97 123.884C299.97 114.193 301.77 105.195 305.37 96.8881C309.108 88.4431 314.23 81.0365 320.737 74.6681C327.382 68.2997 334.996 63.3158 343.58 59.7163C352.302 56.1168 361.647 54.3171 371.614 54.3171C386.289 54.3171 397.642 58.1934 405.671 65.9462C413.701 73.5606 417.716 84.4283 417.716 98.5494C417.716 108.102 415.847 117.101 412.109 125.546C408.509 133.852 403.387 141.19 396.742 147.558C390.235 153.926 382.621 158.91 373.899 162.51C365.315 166.109 355.97 167.909 345.864 167.909ZM348.148 159.81C351.194 159.81 354.171 158.426 357.078 155.657C360.124 152.75 362.962 148.804 365.592 143.82C368.361 138.836 370.784 133.16 372.86 126.792C374.937 120.423 376.529 113.709 377.637 106.648C378.883 99.5878 379.506 92.6656 379.506 85.8819C379.506 78.1292 378.675 72.3146 377.014 68.4382C375.352 64.4234 372.86 62.4159 369.538 62.4159C366.492 62.4159 363.446 63.8696 360.401 66.7769C357.493 69.5457 354.655 73.4913 351.886 78.6137C349.256 83.5976 346.902 89.2738 344.826 95.6422C342.749 102.011 341.088 108.725 339.842 115.786C338.734 122.708 338.181 129.63 338.181 136.552C338.181 144.305 339.011 150.119 340.673 153.996C342.472 157.872 344.964 159.81 348.148 159.81Z" fill="#E8FD94"/>
<path d="M220.072 167.909C205.535 167.909 194.252 164.102 186.223 156.488C178.193 148.735 174.178 137.867 174.178 123.884C174.178 114.193 175.978 105.195 179.577 96.8881C183.315 88.4431 188.438 81.0365 194.944 74.6681C201.59 68.2997 209.204 63.3158 217.787 59.7163C226.509 56.1168 235.854 54.3171 245.822 54.3171C260.497 54.3171 271.849 58.1934 279.879 65.9462C287.909 73.5606 291.923 84.4283 291.923 98.5494C291.923 108.102 290.054 117.101 286.317 125.546C282.717 133.852 277.595 141.19 270.949 147.558C264.443 153.926 256.828 158.91 248.106 162.51C239.523 166.109 230.178 167.909 220.072 167.909ZM222.356 159.81C225.402 159.81 228.378 158.426 231.286 155.657C234.331 152.75 237.169 148.804 239.8 143.82C242.569 138.836 244.991 133.16 247.068 126.792C249.145 120.423 250.737 113.709 251.844 106.648C253.09 99.5878 253.713 92.6656 253.713 85.8819C253.713 78.1292 252.883 72.3146 251.221 68.4382C249.56 64.4234 247.068 62.4159 243.745 62.4159C240.7 62.4159 237.654 63.8696 234.608 66.7769C231.701 69.5457 228.863 73.4913 226.094 78.6137C223.464 83.5976 221.11 89.2738 219.033 95.6422C216.957 102.011 215.295 108.725 214.05 115.786C212.942 122.708 212.388 129.63 212.388 136.552C212.388 144.305 213.219 150.119 214.88 153.996C216.68 157.872 219.172 159.81 222.356 159.81Z" fill="#E8FD94"/>
<path d="M0 165.132L2.2843 157.033C9.06799 156.617 14.0519 155.856 17.2361 154.748C20.5587 153.641 22.843 151.841 24.089 149.349C25.335 146.857 26.581 143.465 27.827 139.174L54.4079 44.0637C55.7923 39.0797 56.3461 35.411 56.0692 33.0575C55.7923 30.704 54.2695 29.0426 51.5006 28.0736C48.8702 26.966 44.6477 26.343 38.8331 26.2046L41.1174 18.1057C42.225 18.2441 43.6786 18.3826 45.4784 18.521C47.4166 18.521 49.7009 18.521 52.3313 18.521C55.1001 18.521 58.2843 18.521 61.8838 18.521C65.4833 18.521 69.6366 18.521 74.3436 18.521C79.8813 18.521 84.5192 18.521 88.2571 18.521C91.9951 18.521 95.1792 18.521 97.8096 18.521C100.578 18.3826 102.932 18.3133 104.87 18.3133C106.808 18.1749 108.677 18.1057 110.477 18.1057C128.89 18.1057 142.734 20.7361 152.01 25.9969C161.424 31.2577 166.131 39.0797 166.131 49.4629C166.131 59.8461 161.355 68.4295 151.802 75.2132C142.388 81.8585 128.821 86.2886 111.1 88.5037V88.919C125.775 90.3035 136.92 93.903 144.534 99.7176C152.287 105.532 156.163 113.285 156.163 122.976C156.163 131.836 153.325 139.451 147.649 145.819C141.973 152.049 133.735 156.825 122.937 160.148C112.138 163.47 99.1249 165.132 83.8962 165.132C80.9889 165.132 78.22 165.132 75.5896 165.132C72.9592 164.993 70.0519 164.924 66.8677 164.924C63.6836 164.786 59.8072 164.716 55.2386 164.716C50.8084 164.578 45.2707 164.509 38.6255 164.509C29.2114 164.509 21.2509 164.578 14.7441 164.716C8.23733 164.716 3.32262 164.855 0 165.132ZM78.9122 156.825C85.6959 156.825 91.7182 155.164 96.979 151.841C102.24 148.519 106.393 144.019 109.439 138.343C112.623 132.667 114.215 126.299 114.215 119.238C114.215 110.793 112.069 104.286 107.778 99.7176C103.486 95.0105 97.2559 92.657 89.0878 92.657H78.7046L80.5736 84.9734H94.2794C100.509 84.9734 106.047 83.3813 110.892 80.1972C115.738 77.013 119.614 72.7213 122.522 67.322C125.429 61.9227 126.883 55.9005 126.883 49.2553C126.883 41.9178 125.014 36.2417 121.276 32.2268C117.676 28.212 112.277 26.2046 105.078 26.2046H101.548L69.9827 139.174C68.7367 143.742 68.1829 147.273 68.3214 149.765C68.4598 152.257 69.3597 154.056 71.021 155.164C72.8208 156.271 75.4512 156.825 78.9122 156.825Z" fill="#E8FD94"/>
</svg>
