<svg width="57" height="56" viewBox="0 0 57 56" fill="none" xmlns="http://www.w3.org/2000/svg">
<path d="M13.7903 41.0323C13.7903 36.4167 16.7095 32.3887 21.0661 30.1563C21.0661 30.1563 23.8575 28.6452 28.7202 28.6452C33.583 28.6452 36.708 30.1563 36.708 30.1563C41.0646 32.3887 43.9838 36.4167 43.9838 41.0323" stroke="white" stroke-width="3"/>
<path d="M28.8204 8.46774C34.1563 8.46774 38.4806 12.7893 38.4806 18.1162C38.4806 20.4324 37.656 22.5518 36.2863 24.2187L36.005 24.5459V24.5468C34.2318 26.522 31.6743 27.7646 28.8204 27.7646C26.1449 27.7645 23.7301 26.6723 21.9777 24.9082L21.6359 24.5468V24.5459C20.0987 22.8335 19.1613 20.5867 19.1613 18.1162C19.1613 12.7894 23.4848 8.46794 28.8204 8.46774Z" stroke="white" stroke-width="3"/>
<g filter="url(#filter0_d_22_51)">
<circle cx="28.5" cy="24" r="22.5" stroke="white" stroke-width="3" shape-rendering="crispEdges"/>
</g>
<defs>
<filter id="filter0_d_22_51" x="0.5" y="0" width="56" height="56" filterUnits="userSpaceOnUse" color-interpolation-filters="sRGB">
<feFlood flood-opacity="0" result="BackgroundImageFix"/>
<feColorMatrix in="SourceAlpha" type="matrix" values="0 0 0 0 0 0 0 0 0 0 0 0 0 0 0 0 0 0 127 0" result="hardAlpha"/>
<feOffset dy="4"/>
<feGaussianBlur stdDeviation="2"/>
<feComposite in2="hardAlpha" operator="out"/>
<feColorMatrix type="matrix" values="0 0 0 0 0 0 0 0 0 0 0 0 0 0 0 0 0 0 0.25 0"/>
<feBlend mode="normal" in2="BackgroundImageFix" result="effect1_dropShadow_22_51"/>
<feBlend mode="normal" in="SourceGraphic" in2="effect1_dropShadow_22_51" result="shape"/>
</filter>
</defs>
</svg>
